<svg width="26" height="17" viewBox="0 0 26 17" fill="none" xmlns="http://www.w3.org/2000/svg">
<path d="M25.6858 0.469933C25.4938 0.380558 25.2679 0.411737 25.1082 0.548237C21.1509 3.90295 16.1003 8.203 14.5113 9.63488C13.6194 10.44 12.3816 10.44 11.4876 9.63382C9.79387 8.10774 4.12222 3.28616 0.89182 0.548187C0.730996 0.411687 0.504613 0.381573 0.314184 0.469882C0.122738 0.5588 0 0.750296 0 0.961343V14.5834C0 15.7784 0.971699 16.7501 2.16668 16.7501H23.8334C25.0283 16.7501 26 15.7784 26 14.5834V0.961343C26 0.750296 25.8773 0.558292 25.6858 0.469933Z" fill="#45A090"/>
</svg>
